<?xml version="1.0" encoding="UTF-8" standalone="no"?>
<svg
   version="1.1"
   viewBox="0 0 48 48"
   id="svg18"
   sodipodi:docname="obstudio.svg"
   width="48"
   height="48"
   inkscape:version="1.4 (e7c3feb100, 2024-10-09)"
   xmlns:inkscape="http://www.inkscape.org/namespaces/inkscape"
   xmlns:sodipodi="http://sodipodi.sourceforge.net/DTD/sodipodi-0.dtd"
   xmlns:xlink="http://www.w3.org/1999/xlink"
   xmlns="http://www.w3.org/2000/svg"
   xmlns:svg="http://www.w3.org/2000/svg"
   xmlns:rdf="http://www.w3.org/1999/02/22-rdf-syntax-ns#"
   xmlns:cc="http://creativecommons.org/ns#"
   xmlns:dc="http://purl.org/dc/elements/1.1/">
  <sodipodi:namedview
     id="namedview18"
     pagecolor="#ffffff"
     bordercolor="#000000"
     borderopacity="0.25"
     inkscape:showpageshadow="2"
     inkscape:pageopacity="0.0"
     inkscape:pagecheckerboard="0"
     inkscape:deskcolor="#d1d1d1"
     inkscape:zoom="13.421954"
     inkscape:cx="33.601666"
     inkscape:cy="23.729779"
     inkscape:window-width="1920"
     inkscape:window-height="1050"
     inkscape:window-x="0"
     inkscape:window-y="30"
     inkscape:window-maximized="1"
     inkscape:current-layer="svg18" />
  <defs
     id="defs14">
    <style
       type="text/css"
       id="style1">.cls-1{fill:url(#radial-gradient);}.cls-2{fill:none;}.cls-3{fill:url(#radial-gradient-2);}.cls-4{fill:url(#radial-gradient-3);}.cls-5{clip-path:url(#clip-path);}.cls-6{fill:url(#radial-gradient-5);}.cls-7{clip-path:url(#clip-path-2);}.cls-8{fill:url(#radial-gradient-6);}.cls-9{fill:url(#radial-gradient-7);}</style>
    <radialGradient
       id="radial-gradient"
       cx="512.06"
       cy="512.12"
       r="444.12"
       gradientUnits="userSpaceOnUse">
      <stop
         stop-opacity=".5"
         offset=".99"
         id="stop1" />
      <stop
         stop-opacity="0"
         offset="1"
         id="stop2" />
    </radialGradient>
    <radialGradient
       id="radial-gradient-2"
       cx="514.5"
       cy="516.5"
       r="496.5"
       gradientUnits="userSpaceOnUse">
      <stop
         offset=".91341"
         id="stop3" />
      <stop
         stop-opacity="0"
         offset="1"
         id="stop4" />
    </radialGradient>
    <radialGradient
       id="radial-gradient-3"
       cx="512.06"
       cy="512.12"
       r="486.26999"
       gradientUnits="userSpaceOnUse">
      <stop
         stop-color="#fff"
         offset=".99"
         id="stop5" />
      <stop
         stop-color="#fdfdfd"
         offset=".99505"
         id="stop6" />
      <stop
         stop-color="#f6f6f6"
         offset=".99687"
         id="stop7" />
      <stop
         stop-color="#ebebeb"
         offset=".99817"
         id="stop8" />
      <stop
         stop-color="#dadada"
         offset=".99921"
         id="stop9" />
      <stop
         stop-color="#c7c7c7"
         offset="1"
         id="stop10" />
    </radialGradient>
    <clipPath
       id="clip-path"
       transform="translate(-18 -20)">
      <path
         id="SVGID"
         class="cls-1"
         d="m 67.938,512.12 c 0,245.29 198.84,444.12 444.12,444.12 245.28,0 444.13,-198.83 444.13,-444.12 C 956.188,266.84 757.348,68 512.058,68 266.768,68 67.938,266.84 67.938,512.12" />
    </clipPath>
    <radialGradient
       id="radial-gradient-5"
       cx="494.06"
       cy="492.12"
       r="444.12"
       xlink:href="#radial-gradient" />
    <clipPath
       id="clip-path-2"
       transform="translate(-18 -20)">
      <path
         class="cls-2"
         d="m 71.603,512.12 c 0,243.26 197.2,440.46 440.46,440.46 243.26,0 440.46,-197.19 440.46,-440.46 0,-243.26 -197.2,-440.46 -440.46,-440.46 -243.26,0 -440.46,197.2 -440.46,440.46"
         id="path10" />
    </clipPath>
    <radialGradient
       id="radial-gradient-6"
       cx="5.2951999"
       cy="1029.3"
       r="4.6532998"
       gradientTransform="matrix(94.654,0,0,-94.654,-7.1542,97921)"
       gradientUnits="userSpaceOnUse">
      <stop
         offset="0"
         id="stop11" />
      <stop
         stop-color="#322f32"
         offset="1"
         id="stop12" />
    </radialGradient>
    <radialGradient
       id="radial-gradient-7"
       cx="578.89001"
       cy="473.32001"
       r="353.94"
       gradientTransform="matrix(1,0,0,1.0971,-18,-65.942)"
       gradientUnits="userSpaceOnUse">
      <stop
         stop-color="#c2c0c2"
         offset="0"
         id="stop13" />
      <stop
         stop-color="#ebebeb"
         offset="1"
         id="stop14" />
    </radialGradient>
    <radialGradient
       inkscape:collect="always"
       xlink:href="#radial-gradient"
       id="radialGradient18"
       gradientUnits="userSpaceOnUse"
       cx="512.06"
       cy="512.12"
       r="444.12" />
  </defs>
  <title
     id="title14">OBS Studio</title>
  <desc
     id="desc14">Open-source screencasting and streaming software</desc>
  <g
     id="g20"
     transform="scale(0.04827368)">
    <g
       id="g19">
      <g
         shape-rendering="geometricPrecision"
         id="g16">
        <path
           class="cls-3"
           transform="translate(-18,-20)"
           d="M 514.5,20 C 788.71048,20 1011,242.28952 1011,516.5 1011,790.71048 788.71048,1013 514.5,1013 240.28952,1013 18,790.71056 18,516.5 18,242.28944 240.28946,20 514.5,20"
           id="path14"
           style="fill:url(#radial-gradient-2)" />
        <path
           class="cls-4"
           transform="translate(-18,-20)"
           d="m 512.06,25.849 c 268.56,0 486.27,217.71 486.27,486.27 0,268.56 -217.71,486.27 -486.27,486.27 -268.56,0 -486.27,-217.71 -486.27,-486.27 0,-268.56 217.71,-486.27 486.27,-486.27"
           id="path15"
           style="fill:url(#radial-gradient-3)" />
        <path
           class="cls-1"
           transform="translate(-18,-20)"
           d="m 67.938,512.12 c 0,245.29 198.84,444.12 444.12,444.12 245.28,0 444.13,-198.83 444.13,-444.12 C 956.188,266.84 757.348,68 512.058,68 266.768,68 67.938,266.84 67.938,512.12"
           id="path16"
           style="fill:url(#radialGradient18)" />
      </g>
      <g
         class="cls-5"
         clip-path="url(#clip-path)"
         id="g17">
        <rect
           class="cls-6"
           x="49.938"
           y="48"
           width="888.25"
           height="888.23999"
           shape-rendering="geometricPrecision"
           id="rect16"
           style="fill:url(#radial-gradient-5)" />
      </g>
      <g
         class="cls-7"
         clip-path="url(#clip-path-2)"
         id="g18">
        <rect
           class="cls-8"
           x="53.603001"
           y="51.665001"
           width="880.91998"
           height="880.90997"
           shape-rendering="geometricPrecision"
           id="rect17"
           style="fill:url(#radial-gradient-6)" />
      </g>
    </g>
    <path
       class="cls-9"
       d="m 666.91,350.5 a 199.24,199.24 0 0 1 -277.24,70.456 202.75,202.75 0 0 1 -44.913,-37.773 198.92,198.92 0 0 1 -49.898,-141.13 c 0.28387,-5.7896 0.76859,-11.563 1.5268,-17.31 0.74726,-5.664 1.7459,-11.303 2.9776,-16.874 q 1.8966,-8.5785 4.5472,-16.962 2.572,-8.1598 5.8635,-16.073 c 2.2746,-5.4851 4.8105,-10.854 7.5465,-16.122 2.8812,-5.5476 6.0731,-10.945 9.4812,-16.184 q 4.7149,-7.2487 10.044,-14.062 c 3.8543,-4.9508 7.95,-9.7272 12.271,-14.276 q 6.5417,-6.8876 13.669,-13.162 c 4.8385,-4.2627 9.9124,-8.2498 15.14,-12.022 q 4.0422,-2.917 8.2364,-5.6119 a 244.39,244.39 0 0 0 -109.08,323.49 q 0.82056,1.704 1.6675,3.3952 0.38468,0.7681 0.77476,1.5335 a 4.6004,4.6004 0 0 0 0.46987,0.91713 c 0.32364,0.35883 0.40473,0.29867 0.89987,0.28969 2.578,-0.0468 5.1581,-0.0347 7.7358,0.021 q 7.1444,0.15426 14.266,0.8147 a 199.58,199.58 0 0 1 178.16,166.37 201.33,201.33 0 0 1 0.64133,60.166 198.75,198.75 0 0 1 -46.161,101.86 202.19,202.19 0 0 1 -49.777,41.784 199.86,199.86 0 0 1 -124.15,26.494 203.07,203.07 0 0 1 -23.203,-4.0299 c -4.9544,-1.1634 -9.8599,-2.531 -14.711,-4.0712 a 242.6,242.6 0 0 0 68.547,18.973 247.04,247.04 0 0 0 66.41,-0.79809 243.53,243.53 0 0 0 108.67,-44.887 246.04,246.04 0 0 0 59.733,-63.074 q 1.0412,-1.5871 2.0576,-3.1902 c 0.263,-0.41478 0.85074,-1.0689 0.77441,-1.5089 a 8.4945,8.4945 0 0 0 -1.0506,-1.9447 q -2.0028,-3.7574 -3.8436,-7.5982 -3.698,-7.7162 -6.7219,-15.732 a 198.02,198.02 0 0 1 -9.3408,-33.367 200.87,200.87 0 0 1 0.041,-73.98 197.88,197.88 0 0 1 21.357,-59.255 199.08,199.08 0 0 1 173.09,-103.06 q 7.3368,-0.0509 14.663,0.42449 7.066,0.47 14.088,1.4179 6.952,0.95079 13.827,2.3939 6.7304,1.4208 13.355,3.2902 6.4892,1.8409 12.843,4.1182 6.4407,2.3126 12.708,5.0639 6.3891,2.7902 12.561,6.0459 6.1656,3.2428 12.1,6.9069 c 3.7136,2.2975 7.3644,4.705 10.913,7.2512 q 5.4899,3.9392 10.726,8.2081 c 3.603,2.9308 7.0801,6.0188 10.462,9.202 q 5.4007,5.0836 10.408,10.563 4.9978,5.4473 9.5701,11.27 c 3.4,4.3183 6.6383,8.7721 9.6604,13.363 3.1045,4.7163 6.0393,9.5555 8.7483,14.515 a 200.21,200.21 0 0 1 10.068,21.366 206.97,206.97 0 0 1 7.9727,24.371 243.74,243.74 0 0 0 -51.678,-120.94 245.66,245.66 0 0 0 -75.012,-62.482 242.86,242.86 0 0 0 -95.948,-28.304 q -4.267,-0.3414 -8.5442,-0.53426 z"
       shape-rendering="geometricPrecision"
       id="path18"
       style="fill:url(#radial-gradient-7)" />
  </g>
  <metadata
     id="metadata18">
    <rdf:RDF>
      <cc:Work
         rdf:about="">
        <dc:title>OBS Studio</dc:title>
      </cc:Work>
    </rdf:RDF>
  </metadata>
</svg>
