<?xml version="1.0" encoding="UTF-8"?>
<svg width="180" height="50" version="1.1" viewBox="0 0 47.625 13.229" xml:space="preserve" xmlns="http://www.w3.org/2000/svg"><g transform="translate(-4.3348)"><path transform="matrix(1.0955 0 0 1 -4.9597 0)" x="28.147343" y="1.5122477e-07" width="23.812504" height="13.229167" rx="1.9488792" d="m30.096 1.5122e-7h19.915c1.0797 0 1.9489 0.8692 1.9489 1.9489v9.3314c0 1.0797-0.8692 1.9489-1.9489 1.9489h-19.915c-1.0797 0-1.9489-0.8692-1.9489-1.9489v-9.3314c0-1.0797 0.8692-1.9489 1.9489-1.9489z" fill="#008cd2" stroke-width=".8302"/><text x="31.964428" y="7.5738611" fill="#ffffff" font-size="3.7545px" stroke-width=".31288" xml:space="preserve"><tspan x="31.964428" y="7.5738611" fill="#ffffff" font-family="FreeSans" font-size="3.7545px" stroke-width=".31288" style="font-variant-caps:normal;font-variant-east-asian:normal;font-variant-ligatures:normal;font-variant-numeric:normal">My Twitter!</tspan></text><text x="32.243942" y="10.137398" fill="#494949" font-family="FreeSans" font-size="2.0846px" stroke-width=".17372" xml:space="preserve"><tspan x="32.243942" y="10.137398" style="font-variant-caps:normal;font-variant-east-asian:normal;font-variant-ligatures:normal;font-variant-numeric:normal">dont post much here</tspan><tspan x="32.243942" y="12.774716" style="font-variant-caps:normal;font-variant-east-asian:normal;font-variant-ligatures:normal;font-variant-numeric:normal">yet</tspan></text><path x="4.3348432" y="0" width="24.707403" height="13.229167" rx="2.1166668" d="m6.4515 0h20.474c1.1726 0 2.1167 0.94403 2.1167 2.1167v8.9958c0 1.1726-0.94403 2.1167-2.1167 2.1167h-20.474c-1.1726 0-2.1167-0.94403-2.1167-2.1167v-8.9958c0-1.1726 0.94403-2.1167 2.1167-2.1167z" fill="#0eb6ff" stroke-width=".19293"/><path id="a" d="m22.773 2.6013c-0.20023 0.088811-0.40609 0.16376-0.61643 0.22461 0.24903-0.28164 0.4389-0.61302 0.5548-0.97566 0.026-0.081286-9.41e-4 -0.17026-0.06776-0.22342-0.06672-0.053202-0.15944-0.059577-0.23292-0.016029-0.44671 0.26494-0.92866 0.45535-1.434 0.56669-0.50904-0.49741-1.2004-0.78048-1.9152-0.78048-1.5087 0-2.7362 1.2274-2.7362 2.7361 0 0.11882 0.0076 0.23699 0.0224 0.35351-1.8722-0.16438-3.6127-1.0846-4.8079-2.5507-0.04261-0.052255-0.10822-0.080417-0.1754-0.075038-0.06723 0.00521-0.12762 0.043168-0.16158 0.10143-0.24241 0.41596-0.37057 0.8917-0.37057 1.3757 0 0.65928 0.23538 1.2848 0.65118 1.7736-0.12643-0.043782-0.24912-0.098515-0.36621-0.16351-0.06286-0.034995-0.13958-0.034458-0.20204 0.00136-0.06249 0.035816-0.10167 0.10167-0.10332 0.17367-2.95e-4 0.012148-2.95e-4 0.02425-2.95e-4 0.036557 0 0.98409 0.52964 1.8701 1.3394 2.353-0.06957-0.00693-0.13909-0.017023-0.20817-0.030214-0.07122-0.013568-0.14444 0.011357-0.19246 0.065665-0.04812 0.054276-0.06402 0.12993-0.04187 0.199 0.29973 0.93578 1.0714 1.6241 2.0043 1.8339-0.77374 0.48462-1.6586 0.73847-2.5874 0.73847-0.19382 0-0.38874-0.01141-0.57952-0.03395-0.09478-0.01112-0.18539 0.0447-0.21766 0.13482-0.03228 0.09017 0.0018 0.19069 0.08256 0.24237 1.1933 0.76511 2.5731 1.1695 3.9901 1.1695 2.7857 0 4.5284-1.3136 5.4997-2.4156 1.2112-1.3741 1.9059-3.1929 1.9059-4.99 0-0.07507-0.0011-0.1509-0.0035-0.22646 0.47788-0.36004 0.88931-0.79578 1.2241-1.2966 0.05085-0.076063 0.04533-0.17659-0.01356-0.24661-0.05883-0.070052-0.15689-0.092709-0.2406-0.055632z" fill="#fff" stroke-width=".041115"/></g></svg>
