<?xml version="1.0" encoding="UTF-8"?>
<svg width="180" height="50" version="1.1" viewBox="0 0 47.625 13.229" xml:space="preserve" xmlns="http://www.w3.org/2000/svg"><g transform="translate(-4.3348)"><g><path transform="matrix(1.0955 0 0 1 -4.9597 0)" x="28.147343" y="1.5122477e-07" width="23.812504" height="13.229167" rx="1.9488792" d="m30.096 1.5122e-7h19.915c1.0797 0 1.9489 0.8692 1.9489 1.9489v9.3314c0 1.0797-0.8692 1.9489-1.9489 1.9489h-19.915c-1.0797 0-1.9489-0.8692-1.9489-1.9489v-9.3314c0-1.0797 0.8692-1.9489 1.9489-1.9489z" fill="#cb0000" stroke-width=".8302"/><text x="30.496857" y="5.5649633" fill="#ffffff" font-family="FreeSans" font-size="3.7545px" stroke-width=".31288" xml:space="preserve"><tspan x="30.496857" y="5.5649633" style="font-variant-caps:normal;font-variant-east-asian:normal;font-variant-ligatures:normal;font-variant-numeric:normal">My YouTube </tspan><tspan x="30.496857" y="10.314887" style="font-variant-caps:normal;font-variant-east-asian:normal;font-variant-ligatures:normal;font-variant-numeric:normal">  Channel!</tspan></text><path x="4.3348432" y="0" width="24.707403" height="13.229167" rx="2.1166668" d="m6.4515 0h20.474c1.1726 0 2.1167 0.94403 2.1167 2.1167v8.9958c0 1.1726-0.94403 2.1167-2.1167 2.1167h-20.474c-1.1726 0-2.1167-0.94403-2.1167-2.1167v-8.9958c0-1.1726 0.94403-2.1167 2.1167-2.1167z" fill="#f90000" stroke-width=".19293"/></g><g transform="matrix(.21206 0 0 .21206 9.5692 17.224)" display="block"><g transform="matrix(2.2401 0 0 2.4 -.3349 -74.028)"><g><path d="m27.973 3.1232c-0.3292-1.23-1.2959-2.1966-2.5259-2.5259-2.2271-0.59737-11.162-0.59737-11.162-0.59737s-8.9346 2.2429e-7 -11.162 0.59737c-1.23 0.32926-2.1966 1.2959-2.5259 2.5259-0.59737 2.2272-0.59737 6.8768-0.59737 6.8768s2.2429e-7 4.6496 0.59737 6.8768c0.32926 1.23 1.2959 2.1966 2.5259 2.5258 2.2272 0.5974 11.162 0.5974 11.162 0.5974s8.9347 0 11.162-0.5974c1.23-0.3292 2.1967-1.2958 2.5259-2.5258 0.5974-2.2272 0.5974-6.8768 0.5974-6.8768s-0.0024-4.6496-0.5974-6.8768z" fill="#fff"/><path d="m11.425 14.285 7.4224-4.285-7.4224-4.2851z" fill="#ea0000"/></g></g></g></g></svg>
