<?xml version="1.0" encoding="UTF-8" standalone="no"?>
<svg
   width="180"
   height="50"
   version="1.1"
   viewBox="0 0 47.625 13.229"
   xml:space="preserve"
   id="svg3"
   sodipodi:docname="promo-twitter.svg"
   inkscape:version="1.4.2 (ebf0e940d0, 2025-05-08)"
   xmlns:inkscape="http://www.inkscape.org/namespaces/inkscape"
   xmlns:sodipodi="http://sodipodi.sourceforge.net/DTD/sodipodi-0.dtd"
   xmlns="http://www.w3.org/2000/svg"
   xmlns:svg="http://www.w3.org/2000/svg"><defs
     id="defs3" /><sodipodi:namedview
     id="namedview3"
     pagecolor="#ffffff"
     bordercolor="#000000"
     borderopacity="0.25"
     inkscape:showpageshadow="2"
     inkscape:pageopacity="0.0"
     inkscape:pagecheckerboard="0"
     inkscape:deskcolor="#d1d1d1"
     inkscape:zoom="3.4864293"
     inkscape:cx="51.055101"
     inkscape:cy="49.620969"
     inkscape:window-width="1920"
     inkscape:window-height="1029"
     inkscape:window-x="0"
     inkscape:window-y="27"
     inkscape:window-maximized="1"
     inkscape:current-layer="svg3" /><g
     transform="translate(-4.3348)"
     id="g3"><path
       transform="matrix(1.0955 0 0 1 -4.9597 0)"
       x="28.147343"
       y="1.5122477e-07"
       width="23.812504"
       height="13.229167"
       rx="1.9488792"
       d="m30.096 1.5122e-7h19.915c1.0797 0 1.9489 0.8692 1.9489 1.9489v9.3314c0 1.0797-0.8692 1.9489-1.9489 1.9489h-19.915c-1.0797 0-1.9489-0.8692-1.9489-1.9489v-9.3314c0-1.0797 0.8692-1.9489 1.9489-1.9489z"
       fill="#008cd2"
       stroke-width=".8302"
       id="path1" /><text
       x="29.28133"
       y="7.6962152"
       fill="#ffffff"
       font-size="3.7545px"
       stroke-width="0.31288"
       xml:space="preserve"
       id="text1"
       style="font-size:4.23333px"><tspan
         x="29.28133"
         y="7.6962152"
         fill="#ffffff"
         font-family="FreeSans"
         font-size="3.7545px"
         stroke-width="0.31288"
         style="font-size:4.23333px;font-variant-ligatures:normal;font-variant-caps:normal;font-variant-numeric:normal;font-variant-east-asian:normal"
         id="tspan1">My Bluesky!</tspan></text><text
       x="32.243942"
       y="10.137398"
       fill="#494949"
       font-family="FreeSans"
       font-size="2.0846px"
       stroke-width="0.17372"
       xml:space="preserve"
       id="text3" /><path
       x="4.3348432"
       y="0"
       width="24.707403"
       height="13.229167"
       rx="2.1166668"
       d="m6.4515 0h20.474c1.1726 0 2.1167 0.94403 2.1167 2.1167v8.9958c0 1.1726-0.94403 2.1167-2.1167 2.1167h-20.474c-1.1726 0-2.1167-0.94403-2.1167-2.1167v-8.9958c0-1.1726 0.94403-2.1167 2.1167-2.1167z"
       fill="#0eb6ff"
       stroke-width=".19293"
       id="path3" /></g><path
     d="m 8.5333796,1.476012 c 1.5463764,1.1609233 3.2096804,3.5147894 3.8203624,4.7780104 0.610728,-1.2631286 2.273937,-3.6171106 3.82036,-4.7780104 1.115786,-0.83767449 2.923642,-1.48581956 2.923642,0.5766127 0,0.411896 -0.236156,3.4601386 -0.374665,3.955009 -0.481452,1.7205123 -2.235846,2.1593371 -3.796407,1.8937396 2.727833,0.464266 3.421768,2.0020854 1.923134,3.5399037 -2.846202,2.920621 -4.09082,-0.732792 -4.409881,-1.6689303 -0.05846,-0.1716169 -0.08582,-0.2519002 -0.08623,-0.1836317 -4.04e-4,-0.068262 -0.02777,0.011986 -0.08623,0.1836317 C 11.94855,10.708485 10.703956,14.36199 7.8575906,11.441277 6.3589367,9.9034587 7.0528484,8.3655471 9.7807277,7.9013733 8.2201188,8.1669708 6.4657014,7.7281435 5.9843189,6.0076337 5.845807,5.5127178 5.6096555,2.4644738 5.6096555,2.0526247 c 0,-2.06243226 1.8079041,-1.41428719 2.923642,-0.5766127 z"
     fill="#1185fe"
     id="path1-3"
     style="fill:#ffffff;fill-opacity:1;stroke-width:0.0232552" /></svg>
