<?xml version="1.0" encoding="UTF-8"?>
<svg width="180" height="50" version="1.1" viewBox="0 0 47.625 13.229" xml:space="preserve" xmlns="http://www.w3.org/2000/svg"><g transform="translate(-4.3348)"><path transform="matrix(1.0955 0 0 1 -4.9597 0)" x="28.147343" y="1.5122477e-07" width="23.812504" height="13.229167" rx="1.9488792" d="m30.096 1.5122e-7h19.915c1.0797 0 1.9489 0.8692 1.9489 1.9489v9.3314c0 1.0797-0.8692 1.9489-1.9489 1.9489h-19.915c-1.0797 0-1.9489-0.8692-1.9489-1.9489v-9.3314c0-1.0797 0.8692-1.9489 1.9489-1.9489z" fill="#d23a00" stroke-width=".8302"/><text x="30.181715" y="7.5738611" fill="#ffffff" font-size="3.7545px" stroke-width=".31288" xml:space="preserve"><tspan x="30.181715" y="7.5738611" fill="#ffffff" font-family="FreeSans" font-size="3.7545px" stroke-width=".31288" style="font-variant-caps:normal;font-variant-east-asian:normal;font-variant-ligatures:normal;font-variant-numeric:normal">My Website!</tspan></text><path x="4.3348432" y="0" width="24.707403" height="13.229167" rx="2.1166668" d="m6.4515 0h20.474c1.1726 0 2.1167 0.94403 2.1167 2.1167v8.9958c0 1.1726-0.94403 2.1167-2.1167 2.1167h-20.474c-1.1726 0-2.1167-0.94403-2.1167-2.1167v-8.9958c0-1.1726 0.94403-2.1167 2.1167-2.1167z" fill="#ff510e" stroke-width=".19293"/><path transform="matrix(.019402 0 0 .019402 11.722 1.6476)" d="m256 0c-141.38 0-256 114.62-256 256s114.62 256 256 256 256-114.62 256-256-114.62-256-256-256zm-83.789 41.609c-24.934 27.119-44.68 66.125-56.755 111.99h-65.707c25.43-50.86 69.12-91.077 122.46-111.99zm-146.61 214.39c0-26.999 5.077-52.727 13.662-76.8h70.494c-4.608 24.294-7.356 49.963-7.356 76.8s2.748 52.506 7.347 76.8h-70.485c-8.585-24.073-13.662-49.8-13.662-76.8zm24.149 102.4h65.707c12.083 45.867 31.821 84.872 56.755 111.99-53.342-20.915-97.032-61.132-122.46-111.99zm193.45 126.79c-43.81-8.252-81.877-58.24-101.36-126.79h101.36zm0-152.39h-107.46c-4.924-24.166-7.74-49.997-7.74-76.8s2.816-52.634 7.74-76.8h107.46zm0-179.2h-101.36c19.482-68.548 57.549-118.54 101.36-126.79zm219.05 0h-65.707c-12.083-45.867-31.821-84.873-56.755-111.99 53.342 20.916 97.032 61.133 122.46 111.99zm-193.45-126.79c43.81 8.252 81.877 58.24 101.36 126.79h-101.36zm0 152.39h107.46c4.924 24.166 7.74 49.997 7.74 76.8s-2.816 52.634-7.74 76.8h-107.46zm0 305.99v-126.79h101.36c-19.482 68.548-57.549 118.54-101.36 126.79zm70.989-14.797c24.934-27.127 44.672-66.125 56.755-111.99h65.707c-25.43 50.859-69.12 91.076-122.46 111.99zm62.455-137.59c4.608-24.294 7.356-49.963 7.356-76.8s-2.748-52.506-7.347-76.8h70.494c8.576 24.073 13.653 49.801 13.653 76.8 0 27-5.077 52.727-13.662 76.8z" fill="#fff"/></g></svg>
