<?xml version="1.0" encoding="UTF-8" standalone="no"?>
<!-- Created with Inkscape (http://www.inkscape.org/) -->

<svg
   width="200"
   height="60"
   viewBox="0 0 52.916666 15.875"
   version="1.1"
   id="svg1"
   sodipodi:docname="promo-yt.svg"
   inkscape:version="1.4 (e7c3feb100, 2024-10-09)"
   xml:space="preserve"
   xmlns:inkscape="http://www.inkscape.org/namespaces/inkscape"
   xmlns:sodipodi="http://sodipodi.sourceforge.net/DTD/sodipodi-0.dtd"
   xmlns="http://www.w3.org/2000/svg"
   xmlns:svg="http://www.w3.org/2000/svg"><sodipodi:namedview
     id="namedview1"
     pagecolor="#ffffff"
     bordercolor="#000000"
     borderopacity="0.25"
     inkscape:showpageshadow="2"
     inkscape:pageopacity="0.0"
     inkscape:pagecheckerboard="0"
     inkscape:deskcolor="#d1d1d1"
     inkscape:document-units="px"
     inkscape:zoom="2.9683221"
     inkscape:cx="94.666276"
     inkscape:cy="54.744733"
     inkscape:window-width="1920"
     inkscape:window-height="1050"
     inkscape:window-x="0"
     inkscape:window-y="30"
     inkscape:window-maximized="1"
     inkscape:current-layer="layer1"
     showgrid="false"
     inkscape:export-bgcolor="#ff0000ff"><inkscape:grid
       id="grid1"
       units="px"
       originx="0"
       originy="0"
       spacingx="1"
       spacingy="1"
       empcolor="#0099e5"
       empopacity="0.30196078"
       color="#0099e5"
       opacity="0.14901961"
       empspacing="5"
       enabled="true"
       visible="true"
       dotted="false" /></sodipodi:namedview><defs
     id="defs1" /><g
     inkscape:label="l"
     inkscape:groupmode="layer"
     id="layer1"><rect
       style="fill:#cb0000;fill-opacity:1;stroke-width:0.477763"
       id="rect1"
       width="23.87442"
       height="15.875"
       x="29.042246"
       y="-3.0338765e-07"
       inkscape:label="r" /><text
       xml:space="preserve"
       style="font-size:3.75451px;text-align:start;writing-mode:lr-tb;direction:ltr;text-anchor:start;fill:#ffffff;fill-opacity:1;stroke-width:0.312876"
       x="31.031673"
       y="6.8878798"
       id="text1"
       inkscape:label="t"><tspan
         sodipodi:role="line"
         id="tspan1"
         style="font-style:normal;font-variant:normal;font-weight:normal;font-stretch:normal;font-size:3.75451px;font-family:FreeSans;-inkscape-font-specification:'FreeSans, Normal';font-variant-ligatures:normal;font-variant-caps:normal;font-variant-numeric:normal;font-variant-east-asian:normal;fill:#ffffff;fill-opacity:1;stroke-width:0.312876"
         x="31.031673"
         y="6.8878798">My YouTube </tspan><tspan
         sodipodi:role="line"
         style="font-style:normal;font-variant:normal;font-weight:normal;font-stretch:normal;font-size:3.75451px;font-family:FreeSans;-inkscape-font-specification:'FreeSans, Normal';font-variant-ligatures:normal;font-variant-caps:normal;font-variant-numeric:normal;font-variant-east-asian:normal;fill:#ffffff;fill-opacity:1;stroke-width:0.312876"
         x="31.031673"
         y="11.637803"
         id="tspan3">  Channel!</tspan></text><rect
       style="fill:#f90000;fill-opacity:1;stroke-width:0.229136"
       id="rect3"
       width="29.042246"
       height="15.875"
       x="0"
       y="0"
       inkscape:label="r" /><g
       style="display:block"
       id="g1"
       transform="matrix(0.21205964,0,0,0.21205964,7.8062326,18.546475)"><g
         id="g3"
         transform="matrix(2.2401041,0,0,2.4,-0.33489593,-74.028261)"><g
           id="g2"><path
             d="M 27.9727,3.12324 C 27.6435,1.89323 26.6768,0.926623 25.4468,0.597366 23.2197,2.24288e-7 14.285,0 14.285,0 14.285,0 5.35042,2.24288e-7 3.12323,0.597366 1.89323,0.926623 0.926623,1.89323 0.597366,3.12324 2.24288e-7,5.35042 0,10 0,10 c 0,0 2.24288e-7,4.6496 0.597366,6.8768 0.329257,1.23 1.295864,2.1966 2.525864,2.5258 C 5.35042,20 14.285,20 14.285,20 c 0,0 8.9347,0 11.1618,-0.5974 1.23,-0.3292 2.1967,-1.2958 2.5259,-2.5258 C 28.5701,14.6496 28.5701,10 28.5701,10 c 0,0 -0.0024,-4.64958 -0.5974,-6.87676 z"
             fill="#ff0000"
             id="path1"
             style="fill:#ffffff;fill-opacity:1" /><path
             d="m 11.4253,14.2854 7.4224,-4.285 -7.4224,-4.28507 z"
             fill="#ffffff"
             id="path2"
             style="fill:#ea0000;fill-opacity:1" /></g></g></g></g></svg>
