<?xml version="1.0" encoding="UTF-8"?>
<svg width="48" height="48" fill="none" version="1.1" viewBox="0 0 3.84 3.84" xmlns="http://www.w3.org/2000/svg">
 <g transform="matrix(.12 0 0 .12063 -1.92 -1.9301)">
  <path d="m31.885 16c-8.124 0-7.617 3.523-7.617 3.523l0.01 3.65h7.752v1.095h-10.833s-5.197-0.59-5.197 7.608c0 8.196 4.537 7.906 4.537 7.906h2.708v-3.804s-0.146-4.537 4.465-4.537h7.688s4.32 0.07 4.32-4.175v-7.019s0.656-4.247-7.833-4.247zm-4.275 2.454c0.771 0 1.395 0.624 1.395 1.395s-0.624 1.395-1.395 1.395a1.393 1.393 0 0 1-1.395-1.395c0-0.771 0.624-1.395 1.395-1.395z" fill="url(#a)"/>
  <path d="m32.115 47.833c8.124 0 7.617-3.523 7.617-3.523l-0.01-3.65h-7.752v-1.095h10.832s5.198 0.59 5.198-7.607-4.537-7.906-4.537-7.906h-2.708v3.803s0.146 4.537-4.465 4.537h-7.688s-4.32-0.07-4.32 4.175v7.019s-0.656 4.247 7.833 4.247zm4.275-2.454a1.393 1.393 0 0 1-1.395-1.395c0-0.77 0.624-1.394 1.395-1.394s1.395 0.623 1.395 1.394c0 0.772-0.624 1.395-1.395 1.395z" fill="url(#b)"/>
 </g>
 <defs>
  <linearGradient id="a" x1="19.075" x2="34.898" y1="18.782" y2="34.658" gradientUnits="userSpaceOnUse">
   <stop stop-color="#387EB8" offset="0"/>
   <stop stop-color="#366994" offset="1"/>
  </linearGradient>
  <linearGradient id="b" x1="28.809" x2="45.803" y1="28.882" y2="45.163" gradientUnits="userSpaceOnUse">
   <stop stop-color="#FFE052" offset="0"/>
   <stop stop-color="#FFC331" offset="1"/>
  </linearGradient>
 </defs>
</svg>
