<?xml version="1.0" encoding="UTF-8" standalone="no"?>
<!-- Uploaded to: SVG Repo, www.svgrepo.com, Generator: SVG Repo Mixer Tools -->

<svg
   width="48"
   height="48"
   viewBox="0 0 1.92 1.92"
   version="1.1"
   id="svg1"
   sodipodi:docname="tailwind.svg"
   inkscape:version="1.4.2 (ebf0e940d0, 2025-05-08)"
   xmlns:inkscape="http://www.inkscape.org/namespaces/inkscape"
   xmlns:sodipodi="http://sodipodi.sourceforge.net/DTD/sodipodi-0.dtd"
   xmlns="http://www.w3.org/2000/svg"
   xmlns:svg="http://www.w3.org/2000/svg"
   xmlns:rdf="http://www.w3.org/1999/02/22-rdf-syntax-ns#"
   xmlns:cc="http://creativecommons.org/ns#"
   xmlns:dc="http://purl.org/dc/elements/1.1/">
  <defs
     id="defs1" />
  <sodipodi:namedview
     id="namedview1"
     pagecolor="#ffffff"
     bordercolor="#000000"
     borderopacity="0.25"
     inkscape:showpageshadow="2"
     inkscape:pageopacity="0.0"
     inkscape:pagecheckerboard="0"
     inkscape:deskcolor="#d1d1d1"
     inkscape:zoom="5.7982756"
     inkscape:cx="21.385669"
     inkscape:cy="49.497475"
     inkscape:window-width="1920"
     inkscape:window-height="1029"
     inkscape:window-x="0"
     inkscape:window-y="27"
     inkscape:window-maximized="1"
     inkscape:current-layer="svg1" />
  <title
     id="title1">file_type_tailwind</title>
  <path
     d="m 0.48172051,0.68468057 q 0.096344,-0.53714564 0.48172043,-0.53714564 c 0.38537636,0 0.43354846,0.40285929 0.62623666,0.47000248 Q 1.7823659,0.6846807 1.926882,0.41610774 1.8305377,0.95325337 1.4451614,0.95325337 c -0.3853763,0 -0.4335484,-0.40285915 -0.62623664,-0.47000245 Q 0.62623658,0.41610774 0.48172051,0.68468057 Z M 0,1.490399 Q 0.09634422,0.95325337 0.48172051,0.95325337 c 0.38537636,0 0.4335484,0.40285943 0.62623659,0.47000253 Q 1.3006454,1.4903991 1.4451614,1.2218263 1.3488174,1.7589718 0.96344094,1.7589718 c -0.38537639,0 -0.4335484,-0.402859 -0.62623658,-0.4700024 Q 0.14451611,1.2218259 0,1.490399 Z"
     style="fill:#44a8b3;stroke-width:0.0812458"
     id="path1" />
  <metadata
     id="metadata1">
    <rdf:RDF>
      <cc:Work
         rdf:about="">
        <dc:title>file_type_tailwind</dc:title>
      </cc:Work>
    </rdf:RDF>
  </metadata>
</svg>
